<svg style="display: none;" xmlns="http://www.w3.org/2000/svg">
        <symbol viewBox="0 0 241 54" id="logo">
            <path d="M22.919,48.4l28.619-.252L30.983,12.958,14.191,42.888l-4.521.04L28.976,9.361,25.747,3.835,0,48.6l17.439-.153L31.08,24.136,41.89,42.644l-16.649.147Zm44.757,5.589L36.367,0.225l0.37-.219,31.31,53.763Zm2.807-33.178V20.759a9.528,9.528,0,0,1,19.055-.052v0.052A9.528,9.528,0,0,1,70.484,20.811Zm14.051,0V20.759a4.672,4.672,0,0,0-4.549-4.912,4.582,4.582,0,0,0-4.473,4.86v0.052a4.667,4.667,0,0,0,4.524,4.912A4.586,4.586,0,0,0,84.535,20.811Zm10.088-9.147H99.2l7.278,9.615V11.664h4.852V29.854h-4.3l-7.556-9.979v9.979H94.624V11.664Zm26.691,4.417h-5.307V11.664h15.517v4.417h-5.307V29.854h-4.9V16.081Zm14.99-4.417h4.929V29.854h-4.929V11.664Zm10.086,9.147V20.759a9.216,9.216,0,0,1,9.325-9.459,8.589,8.589,0,0,1,7.506,3.794l-3.69,2.937a4.7,4.7,0,0,0-3.866-2.131c-2.476,0-4.22,2.157-4.22,4.807v0.052c0,2.729,1.744,4.86,4.22,4.86a4.8,4.8,0,0,0,3.993-2.209l3.69,2.7a8.857,8.857,0,0,1-7.835,4.106A9.112,9.112,0,0,1,146.391,20.811Zm21.586-9.147h14.229v4.288H172.83v2.754h8.491v3.976H172.83v2.885h9.5v4.288H167.977V11.664Zm19.388,0h4.9V25.437h8.567v4.418h-13.47V11.664Zm18.1,0h4.9V25.437h8.568v4.418h-13.47V11.664Zm16.481,9.147V20.759A9.528,9.528,0,0,1,241,20.707v0.052A9.528,9.528,0,0,1,221.945,20.811Zm14.051,0V20.759a4.672,4.672,0,0,0-4.549-4.912,4.582,4.582,0,0,0-4.473,4.86v0.052a4.667,4.667,0,0,0,4.524,4.912A4.586,4.586,0,0,0,236,20.811ZM51.424,25.482V19.459l4.5,7.069h0.1l4.524-7.121V29.854h4.878V11.664H60.243l-4.22,7.042L51.8,11.664H46.622v5.574Zm20.07,14.225h0.678v6.061H71.494V39.707Zm5.876,0h0.636l3.786,4.857V39.707h0.661v6.061H81.911L78.03,40.8v4.97H77.369V39.707ZM89.18,40.338H87.162V39.707h4.722v0.631H89.866v5.429H89.18V40.338Zm7.414-.631h4.345V40.33H97.273V42.4h3.279v0.623H97.273v2.121h3.708v0.624H96.594V39.707Zm9.191,0h2.585a2.358,2.358,0,0,1,1.708.606,1.685,1.685,0,0,1,.463,1.194v0.017a1.767,1.767,0,0,1-1.63,1.766l1.845,2.477h-0.833l-1.742-2.355h-1.717v2.355h-0.679V39.707Zm2.524,3.091a1.335,1.335,0,0,0,1.545-1.246V41.533a1.279,1.279,0,0,0-1.536-1.2h-1.854V42.8h1.845Zm7.123-3.091h0.636l3.786,4.857V39.707h0.661v6.061h-0.541l-3.881-4.97v4.97h-0.661V39.707Zm12.446-.044h0.635l2.739,6.1h-0.73l-0.7-1.6h-3.271l-0.713,1.6h-0.7Zm1.674,3.888-1.365-3.092-1.374,3.092h2.739Zm7.14-3.213h-2.018V39.707H139.4v0.631h-2.018v5.429h-0.686V40.338Zm7.475-.631h0.677v6.061h-0.677V39.707Zm5.609,3.047V42.737a3.066,3.066,0,1,1,6.13-.018v0.018A3.066,3.066,0,1,1,149.776,42.754Zm5.426,0V42.737a2.4,2.4,0,0,0-2.37-2.5,2.372,2.372,0,0,0-2.352,2.485v0.018a2.4,2.4,0,0,0,2.37,2.5A2.372,2.372,0,0,0,155.2,42.754Zm5.577-3.047h0.636l3.786,4.857V39.707h0.661v6.061h-0.541L161.44,40.8v4.97h-0.661V39.707Zm12.446-.044h0.636l2.738,6.1H175.87l-0.7-1.6H171.9l-0.713,1.6h-0.695Zm1.675,3.888-1.366-3.092-1.373,3.092H174.9Zm6.324-3.844H181.9v5.428h3.382v0.633h-4.061V39.707Zm14.5,3.047V42.737a3.03,3.03,0,0,1,3.013-3.135,3.146,3.146,0,0,1,2.24.806l-0.437.519a2.549,2.549,0,0,0-1.828-.692,2.359,2.359,0,0,0-2.285,2.485v0.018a2.334,2.334,0,0,0,2.379,2.519,2.817,2.817,0,0,0,1.734-.606V43.143h-1.828V42.529h2.48v2.415a3.621,3.621,0,0,1-2.413.926A2.959,2.959,0,0,1,195.725,42.754Zm10.436-3.047h2.585a2.358,2.358,0,0,1,1.708.606,1.682,1.682,0,0,1,.464,1.194v0.017a1.767,1.767,0,0,1-1.631,1.766l1.845,2.477H210.3l-1.742-2.355H206.84v2.355h-0.679V39.707Zm2.524,3.091a1.336,1.336,0,0,0,1.546-1.246V41.533a1.28,1.28,0,0,0-1.537-1.2H206.84V42.8h1.845Zm6.857-.044V42.737a3.065,3.065,0,1,1,6.129-.018v0.018A3.065,3.065,0,1,1,215.542,42.754Zm5.425,0V42.737a2.4,2.4,0,0,0-2.369-2.5,2.372,2.372,0,0,0-2.353,2.485v0.018a2.4,2.4,0,0,0,2.37,2.5A2.372,2.372,0,0,0,220.967,42.754Zm5.484,0.476V39.707h0.678v3.48a1.777,1.777,0,0,0,1.837,2.043,1.736,1.736,0,0,0,1.812-2V39.707h0.678v3.472A2.507,2.507,0,1,1,226.451,43.231Zm10.05-3.523h2.25A1.961,1.961,0,0,1,241,41.629v0.017a2.078,2.078,0,0,1-2.361,1.983H237.18v2.139H236.5V39.707Zm2.164,3.3a1.429,1.429,0,0,0,1.648-1.334V41.655a1.362,1.362,0,0,0-1.614-1.316H237.18V43h1.485Z"/>
        </symbol>
        
        <symbol viewBox="0 0 72.5 72.5" id="is360">
            <path  d="M36.25,72.5A36.25,36.25,0,1,1,72.5,36.25,36.29,36.29,0,0,1,36.25,72.5Zm0-70A33.75,33.75,0,1,0,70,36.25,33.79,33.79,0,0,0,36.25,2.5Z" transform="translate(0 0)"/><g class="cls-2"><path class="cls-1" d="M36.83,68.38c-9.67,0-17.54-14.42-17.54-32.13S27.16,4.13,36.83,4.13,54.38,18.54,54.38,36.25,46.5,68.38,36.83,68.38Zm0-63c-9,0-16.29,13.85-16.29,30.87s7.31,30.88,16.29,30.88,16.3-13.86,16.3-30.88S45.82,5.38,36.83,5.38Z" transform="translate(0 0)"/></g><g class="cls-2"><path class="cls-1" d="M36.25,54.38c-17.71,0-32.12-7.88-32.12-17.55S18.54,19.28,36.25,19.28s32.13,7.88,32.13,17.55S54,54.38,36.25,54.38Zm0-33.85c-17,0-30.87,7.31-30.87,16.3s13.85,16.3,30.87,16.3,30.88-7.32,30.88-16.3S53.27,20.53,36.25,20.53Z" transform="translate(0 0)"/></g><g id="_Группа_" data-name=" Группа "><g class="cls-3"><path class="cls-1" d="M16,40.2l2.79-.34a2.63,2.63,0,0,0,.72,1.63,2,2,0,0,0,2.92-.11A2.66,2.66,0,0,0,23,39.55a2.44,2.44,0,0,0-.59-1.72A1.87,1.87,0,0,0,21,37.19a5.3,5.3,0,0,0-1.33.22L20,35.06a2.54,2.54,0,0,0,1.79-.51,1.8,1.8,0,0,0,.61-1.43,1.55,1.55,0,0,0-1.65-1.66,1.74,1.74,0,0,0-1.26.51,2.42,2.42,0,0,0-.64,1.5L16.2,33A5.88,5.88,0,0,1,17,30.84a3.68,3.68,0,0,1,1.56-1.28,5.11,5.11,0,0,1,2.24-.47,4.49,4.49,0,0,1,3.41,1.35,3.44,3.44,0,0,1-1.11,5.67,3.47,3.47,0,0,1,2.07,1.24A3.63,3.63,0,0,1,26,39.68a4.52,4.52,0,0,1-1.44,3.37,5,5,0,0,1-3.61,1.4,5,5,0,0,1-3.38-1.18A4.58,4.58,0,0,1,16,40.2Z" transform="translate(0 0)"/><path class="cls-1" d="M37.53,32.83l-2.79.31a2,2,0,0,0-.53-1.27,1.58,1.58,0,0,0-1.12-.41,1.87,1.87,0,0,0-1.54.82,6.94,6.94,0,0,0-.8,3.42,3.38,3.38,0,0,1,2.68-1.28,4.08,4.08,0,0,1,3.09,1.38,5,5,0,0,1,1.29,3.55,5.09,5.09,0,0,1-1.35,3.7,4.93,4.93,0,0,1-7.23-.37c-1-1.18-1.46-3.12-1.46-5.8s.51-4.75,1.53-6a4.91,4.91,0,0,1,4-1.83,4.2,4.2,0,0,1,2.83,1A4.47,4.47,0,0,1,37.53,32.83ZM31,39.12a3.22,3.22,0,0,0,.65,2.17,1.9,1.9,0,0,0,1.47.77,1.69,1.69,0,0,0,1.34-.63,3.19,3.19,0,0,0,.53-2,3.25,3.25,0,0,0-.58-2.15,1.85,1.85,0,0,0-2.84,0A2.82,2.82,0,0,0,31,39.12Z" transform="translate(0 0)"/><path class="cls-1" d="M44.33,29.09a4.1,4.1,0,0,1,3.41,1.56q1.47,1.84,1.47,6.12c0,2.85-.49,4.89-1.48,6.14a4.11,4.11,0,0,1-3.4,1.54,4.31,4.31,0,0,1-3.54-1.69c-.9-1.13-1.35-3.13-1.35-6s.49-4.87,1.48-6.11A4.09,4.09,0,0,1,44.33,29.09Zm0,2.39a1.48,1.48,0,0,0-.94.33,2.24,2.24,0,0,0-.63,1.2,16.3,16.3,0,0,0-.3,3.76,17,17,0,0,0,.26,3.64,2.59,2.59,0,0,0,.68,1.32,1.43,1.43,0,0,0,.93.33,1.46,1.46,0,0,0,.93-.34,2.25,2.25,0,0,0,.63-1.19,16.24,16.24,0,0,0,.3-3.76,17,17,0,0,0-.26-3.63,2.63,2.63,0,0,0-.68-1.33A1.42,1.42,0,0,0,44.33,31.48Z" transform="translate(0 0)"/><path class="cls-1" d="M55.75,30.42a2,2,0,0,1-3.43,1.42,1.93,1.93,0,0,1-.59-1.42,2,2,0,0,1,2-2,1.93,1.93,0,0,1,1.42.59A1.89,1.89,0,0,1,55.75,30.42Zm-1.09,0a.85.85,0,0,0-.27-.64.88.88,0,0,0-.65-.27.92.92,0,0,0-.91.91.88.88,0,0,0,.27.65.85.85,0,0,0,.64.27.92.92,0,0,0,.92-.92Z" />
        </symbol>

</svg>

